HIERARCHY
ROOT root
{
	OFFSET 0.000000 0.000000 0.000000
	CHANNELS 6 Xposition Yposition Zposition Zrotation Yrotation Xrotation
	JOINT lhip
	{
		OFFSET 0.058581 -0.082280 -0.017664
		CHANNELS 3 Zrotation Yrotation Xrotation
		JOINT lknee
		{
			OFFSET 0.043451 -0.386469 0.008037
			CHANNELS 3 Zrotation Yrotation Xrotation
			JOINT lankle
			{
				OFFSET -0.014790 -0.426874 -0.037428
				CHANNELS 3 Zrotation Yrotation Xrotation
				JOINT ltoe
				{
					OFFSET 0.041054 -0.060286 0.122042
					CHANNELS 3 Zrotation Yrotation Xrotation
					End Site
					{
						OFFSET 0.000000 0.000000 0.000000
					}
				}
			}
		}
	}
	JOINT rhip
	{
		OFFSET -0.060310 -0.090513 -0.013543
		CHANNELS 3 Zrotation Yrotation Xrotation
		JOINT rknee
		{
			OFFSET -0.043257 -0.383688 -0.004843
			CHANNELS 3 Zrotation Yrotation Xrotation
			JOINT rankle
			{
				OFFSET 0.019056 -0.420046 -0.034562
				CHANNELS 3 Zrotation Yrotation Xrotation
				JOINT rtoe
				{
					OFFSET -0.034840 -0.062106 0.130323
					CHANNELS 3 Zrotation Yrotation Xrotation
					End Site
					{
						OFFSET 0.000000 0.000000 0.000000
					}
				}
			}
		}
	}
	JOINT lowerback
	{
		OFFSET 0.004439 0.124404 -0.038385
		CHANNELS 3 Zrotation Yrotation Xrotation
		JOINT upperback
		{
			OFFSET 0.004488 0.137956 0.026820
			CHANNELS 3 Zrotation Yrotation Xrotation
			JOINT chest
			{
				OFFSET -0.002265 0.056032 0.002855
				CHANNELS 3 Zrotation Yrotation Xrotation
				JOINT lowerneck
				{
					OFFSET -0.013390 0.211636 -0.033468
					CHANNELS 3 Zrotation Yrotation Xrotation
					JOINT upperneck
					{
						OFFSET 0.010113 0.088937 0.050410
						CHANNELS 3 Zrotation Yrotation Xrotation
						End Site
						{
							OFFSET 0.000000 0.000000 0.000000
						}
					}
				}
				JOINT lclavicle
				{
					OFFSET 0.071702 0.114000 -0.018898
					CHANNELS 3 Zrotation Yrotation Xrotation
					JOINT lshoulder
					{
						OFFSET 0.122921 0.045205 -0.019046
						CHANNELS 3 Zrotation Yrotation Xrotation
						JOINT lelbow
						{
							OFFSET 0.255332 -0.015649 -0.022946
							CHANNELS 3 Zrotation Yrotation Xrotation
							JOINT lwrist
							{
								OFFSET 0.265709 0.012698 -0.007375
								CHANNELS 3 Zrotation Yrotation Xrotation
								End Site
								{
									OFFSET 0.000000 0.000000 0.000000
								}
							}
						}
					}
				}
				JOINT rclavicle
				{
					OFFSET -0.082954 0.112472 -0.023707
					CHANNELS 3 Zrotation Yrotation Xrotation
					JOINT rshoulder
					{
						OFFSET -0.113228 0.046853 -0.008472
						CHANNELS 3 Zrotation Yrotation Xrotation
						JOINT relbow
						{
							OFFSET -0.260127 -0.014369 -0.031269
							CHANNELS 3 Zrotation Yrotation Xrotation
							JOINT rwrist
							{
								OFFSET -0.269108 0.006794 -0.006027
								CHANNELS 3 Zrotation Yrotation Xrotation
								End Site
								{
									OFFSET 0.000000 0.000000 0.000000
								}
							}
						}
					}
				}
			}
		}
	}
}
MOTION
Frames: 17
Frame Time: 0.033333
-0.740248 -0.353822 0.986263 89.605612 -0.318157 86.584886 -3.801930 0.103341 5.799177 -0.640253 -7.866243 2.801129 4.096161 11.477030 -13.307789 0.000000 -0.000000 0.000000 4.916114 1.075486 -0.116480 -0.759874 2.291928 14.029311 -0.041509 -8.404643 -15.505250 0.000000 -0.000000 0.000000 1.801904 -0.547142 6.907111 1.169172 -0.627653 -2.712097 -0.305682 -1.539537 3.032758 1.075291 6.217292 -5.408246 -5.283991 0.617973 11.765425 -28.059733 8.504062 0.370737 -57.088232 -5.181636 8.747339 12.573174 -28.920991 3.760691 -4.562896 -3.401753 -5.833273 28.770623 -1.109738 -0.466425 56.693047 6.476641 14.618709 -13.196333 18.283038 -7.829797 6.585689 1.115920 -8.157567 
-0.740872 -0.353964 0.986189 89.725942 -0.351312 86.599075 -3.834889 -0.069259 5.681436 -0.683619 -7.894586 2.917125 4.104764 11.567204 -13.284652 0.000000 -0.000000 0.000000 4.852112 1.201719 -0.195857 -0.688270 2.196008 14.149305 0.101019 -8.441753 -15.527370 0.000000 -0.000000 0.000000 1.767992 -0.566256 6.722448 1.141743 -0.540501 -2.540412 -0.314707 -1.454436 3.114420 0.967025 6.376241 -5.177859 -5.332140 0.747786 11.884786 -27.977214 8.502936 0.529006 -57.181427 -5.270278 8.801895 12.648759 -29.240298 3.758615 -4.755972 -3.192940 -5.829283 28.633775 -1.134183 -0.463408 56.866291 6.527279 14.685319 -13.383195 18.511102 -7.862496 6.749815 1.148192 -8.202631 
-0.741428 -0.353944 0.986249 89.739509 -0.346307 86.479295 -3.874125 -0.077239 5.695957 -0.639910 -7.890022 3.067726 4.135377 11.613178 -13.313501 0.000000 -0.000000 0.000000 4.821422 1.225498 -0.087634 -0.638930 2.151696 14.137271 0.121869 -8.386649 -15.482148 0.000000 -0.000000 0.000000 1.805855 -0.594119 6.846585 1.094571 -0.470498 -2.500425 -0.357094 -1.439393 3.174960 0.948814 6.528017 -5.038457 -5.359722 0.917605 12.038950 -27.982162 8.555914 0.476105 -57.283490 -5.211039 8.825315 12.766123 -29.250733 3.710448 -4.725998 -3.374665 -6.048655 28.630545 -1.079254 -0.430993 56.851645 6.730388 14.750739 -13.356341 18.601434 -7.911998 6.673056 1.250043 -8.273421 
-0.742334 -0.354152 0.986417 89.517269 -0.284536 86.429300 -3.814494 -0.011506 5.623504 -0.662885 -7.864893 3.208965 4.179591 11.744155 -13.298822 0.000000 -0.000000 0.000000 4.806561 1.148022 -0.132305 -0.531581 2.251018 14.236050 0.148683 -8.061283 -15.347410 0.000000 -0.000000 0.000000 1.831823 -0.526994 6.937453 1.085875 -0.311998 -2.460404 -0.340528 -1.262841 3.177684 0.884131 6.525495 -4.747260 -5.397509 0.927057 12.006852 -28.109003 8.606184 0.363872 -57.261021 -5.093461 8.814685 12.748989 -29.349890 3.640982 -4.734448 -3.352773 -5.876836 28.638410 -0.990976 -0.378377 56.748345 6.762728 14.715739 -13.471417 18.760200 -7.945317 6.683420 1.174232 -8.096174 
-0.743027 -0.354253 0.986417 89.317987 -0.273624 86.438682 -3.834822 -0.043601 5.542007 -0.636479 -7.746102 3.270511 4.223346 11.862879 -13.345469 0.000000 -0.000000 0.000000 4.766144 1.160290 -0.230325 -0.462476 2.273049 14.331007 0.204575 -7.896030 -15.325042 0.000000 -0.000000 0.000000 1.858493 -0.473630 7.012092 1.050730 -0.205737 -2.501361 -0.370708 -1.193194 3.215360 0.908869 6.552373 -4.691858 -5.454230 0.904966 12.168394 -28.150262 8.681490 0.332562 -57.241912 -5.109400 8.813594 12.731940 -29.330728 3.564245 -4.713569 -3.393518 -5.793139 28.648807 -0.916414 -0.394066 56.710420 6.922737 14.726640 -13.402377 18.592385 -8.020903 6.682971 1.214945 -8.037539 
-0.743551 -0.354398 0.986474 89.019925 -0.205188 86.404629 -3.810716 -0.013179 5.529660 -0.569117 -7.682006 3.328919 4.239227 12.027875 -13.321472 0.000000 -0.000000 0.000000 4.817239 1.254250 -0.186353 -0.410026 2.423788 14.247318 0.214346 -7.786008 -15.235860 0.000000 -0.000000 0.000000 1.899059 -0.423868 7.078023 1.030439 -0.072011 -2.474645 -0.354393 -1.089760 3.231192 0.950370 6.569206 -4.595166 -5.481910 0.969276 12.139444 -28.183232 8.699647 0.304590 -57.267893 -4.998069 8.791665 12.706703 -29.165157 3.607721 -4.835014 -3.327258 -5.693190 28.579034 -0.836287 -0.358638 56.695339 7.059668 14.725597 -13.392677 18.536014 -7.995894 6.744998 1.135594 -8.025186 
-0.744068 -0.354441 0.986502 88.825832 -0.164030 86.323660 -3.771173 0.082919 5.545016 -0.565711 -7.621156 3.426409 4.252628 12.069320 -13.335186 0.000000 -0.000000 0.000000 4.814627 1.268258 -0.081317 -0.351592 2.384720 14.116030 0.201945 -7.729024 -15.231608 0.000000 -0.000000 0.000000 1.894481 -0.457793 7.159211 0.996996 -0.051035 -2.384691 -0.344822 -0.995221 3.229786 0.948774 6.569050 -4.447742 -5.474207 0.996960 12.198389 -28.131090 8.722814 0.376411 -57.360732 -4.848570 8.763199 12.778801 -29.132629 3.634426 -4.893256 -3.195586 -5.734756 28.590208 -0.721985 -0.212835 56.630598 7.214810 14.675518 -13.390137 18.528186 -8.019739 6.669144 1.157950 -7.977662 
-0.744994 -0.354545 0.986622 88.543430 -0.123836 86.331596 -3.734966 0.109024 5.478644 -0.554943 -7.517411 3.434505 4.248013 12.175609 -13.306682 0.000000 -0.000000 0.000000 4.858689 1.363716 -0.212938 -0.335061 2.507090 14.248047 0.257301 -7.614134 -15.195412 0.000000 -0.000000 0.000000 1.876410 -0.441881 7.243738 1.000866 0.005298 -2.346636 -0.340564 -0.937258 3.256659 0.941707 6.592072 -4.492279 -5.530014 0.991645 12.226128 -28.145863 8.750930 0.257945 -57.399723 -4.792769 8.774825 12.745092 -28.857140 3.670406 -4.852391 -3.094189 -5.681620 28.517312 -0.675785 -0.266799 56.633785 7.356924 14.735140 -13.307048 18.519396 -7.970697 6.636298 1.139737 -7.943108 
-0.745581 -0.354711 0.986657 88.329859 -0.092084 86.310699 -3.703899 0.171528 5.488818 -0.531330 -7.456813 3.390167 4.273335 12.241731 -13.285699 0.000000 -0.000000 0.000000 4.911089 1.441950 -0.276149 -0.366396 2.560339 14.349010 0.261128 -7.521920 -15.157114 0.000000 -0.000000 0.000000 1.808686 -0.446677 7.258905 1.006300 0.059107 -2.296487 -0.338944 -0.889373 3.280509 0.964046 6.617062 -4.436419 -5.510216 0.925120 12.237791 -28.125781 8.716908 0.251267 -57.381358 -4.756219 8.752085 12.675852 -28.577138 3.669572 -4.886442 -3.202157 -5.596387 28.585875 -0.664903 -0.247297 56.562456 7.428588 14.719373 -13.303435 18.556524 -8.013797 6.510370 1.194385 -7.990824 
-0.746638 -0.354967 0.986683 87.943144 -0.026432 86.546579 -3.575315 0.270466 5.078673 -0.643260 -7.124934 3.608140 4.354115 12.204631 -13.351531 0.000000 -0.000000 0.000000 4.915865 0.860747 -0.744984 -0.282439 3.127800 14.512184 0.215453 -7.134481 -15.109988 0.000000 -0.000000 0.000000 1.792185 -0.167031 7.121457 1.031859 -0.036854 -2.339229 -0.356454 -0.941115 3.250040 0.990201 6.635989 -4.384883 -5.458364 0.911549 12.297811 -28.196639 8.732352 0.372211 -57.291930 -4.611682 8.675726 12.726522 -28.408711 3.519260 -4.767506 -3.161804 -5.488752 28.730279 -0.616268 -0.146917 56.396413 7.442314 14.666155 -13.301530 18.748431 -8.167432 6.468054 1.239014 -8.006895 
-0.747281 -0.355010 0.986754 87.840713 -0.003719 86.558659 -3.550762 0.278374 4.995239 -0.653547 -7.133289 3.679490 4.361061 12.289343 -13.356875 0.000000 -0.000000 0.000000 4.932529 0.885218 -0.813969 -0.279705 3.183794 14.516114 0.278971 -7.097208 -15.041140 0.000000 -0.000000 0.000000 1.724755 -0.186113 7.173328 1.051949 -0.064287 -2.355037 -0.336814 -0.951112 3.263661 0.980515 6.595184 -4.395114 -5.452880 0.868991 12.329050 -28.224072 8.802853 0.311142 -57.242371 -4.571546 8.653099 12.671739 -28.267509 3.536809 -4.735420 -3.119573 -5.455922 28.661578 -0.830882 -0.249545 56.458242 7.390889 14.707451 -13.253574 18.960988 -7.999711 6.452341 1.218741 -8.006947 
-0.747617 -0.354978 0.986741 87.743613 0.007979 86.588081 -3.543571 0.289195 4.911647 -0.661770 -7.146300 3.722133 4.389441 12.342481 -13.343335 0.000000 -0.000000 0.000000 4.945911 0.964419 -0.896880 -0.269311 3.210906 14.612641 0.258487 -7.067198 -15.105035 0.000000 -0.000000 0.000000 1.642118 -0.206901 7.170659 1.057481 -0.063429 -2.378747 -0.326761 -0.901996 3.300765 1.023336 6.556051 -4.342122 -5.455292 0.772537 12.262955 -28.169902 8.894316 0.177714 -57.238369 -4.585166 8.659395 12.526205 -28.142983 3.723379 -4.723964 -3.093293 -5.382871 28.693315 -0.919966 -0.245955 56.479834 7.356138 14.686966 -13.299838 18.995158 -7.979677 6.369792 1.193612 -7.979949 
-0.747910 -0.354879 0.986802 87.639963 0.020435 86.494572 -3.545158 0.328782 5.020410 -0.663768 -7.124679 3.706600 4.468582 12.402677 -13.370459 0.000000 -0.000000 0.000000 4.947192 1.006090 -0.802291 -0.278901 3.201025 14.583207 0.279094 -7.021524 -15.045704 0.000000 -0.000000 0.000000 1.595933 -0.205268 7.267179 1.039978 -0.055398 -2.321529 -0.316971 -0.895772 3.210119 1.048890 6.571212 -4.166997 -5.388058 0.887949 12.135541 -28.118131 8.860427 0.243846 -57.253096 -4.516053 8.607747 12.584244 -28.196950 3.691502 -4.761015 -3.002080 -5.418145 28.589670 -0.825636 -0.134541 56.600113 7.309772 14.638762 -13.260612 18.718552 -7.944216 6.416009 1.204412 -8.097597 
-0.748339 -0.354760 0.986836 87.599186 0.045367 86.481871 -3.537570 0.354524 5.002824 -0.634114 -7.150016 3.700388 4.506432 12.395866 -13.360815 0.000000 -0.000000 0.000000 4.960120 0.979100 -0.846461 -0.292444 3.214834 14.652470 0.304317 -6.927487 -15.004606 0.000000 -0.000000 0.000000 1.552759 -0.166729 7.216915 1.039957 -0.057878 -2.272082 -0.313240 -0.937997 3.341685 1.057963 6.716731 -4.182433 -5.329071 0.969294 12.077858 -28.151917 8.926496 0.236982 -57.204735 -4.642582 8.590358 12.604014 -28.291473 3.623967 -4.731781 -3.057313 -5.300521 28.697972 -0.959224 -0.155761 56.556671 7.367320 14.589931 -13.220843 18.647716 -7.994077 6.489553 1.166692 -7.955479 
-0.748791 -0.354570 0.986868 87.491894 0.069192 86.494745 -3.543827 0.264959 4.979629 -0.643668 -7.059822 3.657463 4.548394 12.501263 -13.311135 0.000000 -0.000000 0.000000 4.965014 1.051341 -0.936975 -0.276606 3.202072 14.689869 0.318739 -6.970366 -15.043977 0.000000 -0.000000 0.000000 1.554601 -0.109431 7.208090 1.044373 0.000064 -2.243319 -0.318657 -0.940953 3.399343 0.974989 6.651783 -4.470977 -5.380223 0.837307 12.374896 -28.118546 8.921068 0.279670 -57.225987 -4.744625 8.609696 12.637561 -28.441457 3.600842 -4.694822 -3.098199 -5.486759 28.674925 -1.011806 -0.146098 56.592361 7.205648 14.644780 -13.326965 18.696938 -7.944715 6.474876 1.127931 -8.046237 
-0.749084 -0.354245 0.986841 87.386280 0.116986 86.458089 -3.524179 0.284618 4.994444 -0.604036 -6.990517 3.651730 4.546112 12.494468 -13.325850 0.000000 -0.000000 0.000000 5.008856 1.075051 -0.960676 -0.281785 3.246320 14.745309 0.365250 -6.981100 -15.113082 0.000000 -0.000000 0.000000 1.562971 -0.114900 7.258100 1.059073 0.062557 -2.240716 -0.334464 -0.927298 3.454584 1.000084 6.573237 -4.711514 -5.530405 0.693760 12.694267 -28.206505 8.996958 0.155717 -57.081377 -4.836446 8.621726 12.611597 -28.509191 3.522317 -4.757665 -3.127879 -5.445238 28.771732 -1.012381 -0.189383 56.490126 7.132638 14.716919 -13.224256 18.456044 -7.993777 6.595323 1.263806 -7.894355 
-0.749539 -0.353892 0.986797 87.356640 0.174929 86.440484 -3.466660 0.258295 4.992413 -0.642668 -7.007896 3.640537 4.573764 12.541684 -13.322607 0.000000 -0.000000 0.000000 5.031263 1.068416 -1.023137 -0.256390 3.245872 14.841816 0.369646 -6.921157 -15.053968 0.000000 -0.000000 0.000000 1.580837 -0.143480 7.333835 1.059606 0.038132 -2.196637 -0.305986 -0.908639 3.422796 0.987881 6.783099 -4.495913 -5.297109 0.908745 12.144246 -28.147608 8.959597 0.184514 -57.079900 -4.842772 8.586752 12.605333 -28.705590 3.508519 -4.825316 -3.096985 -5.604950 28.735756 -0.970513 -0.207249 56.510131 7.083465 14.683692 -13.123237 18.299807 -7.910478 6.653650 1.167820 -7.917862 
